<svg height="800" width="800" xmlns="http://www.w3.org/2000/svg" viewBox="0 0 512 512"><path d="M471.442 89.775V60.451l-40.559 13.798V37.576l-150.909 87.742h-47.948L81.117 37.576v36.673L40.559 60.451v29.324L0 82.194v349.371l141.305 26.416 2.795-14.948-128.892-24.097V100.508l207.165 38.727v318.428l-58.34-10.905-2.794 14.948 68.033 12.718h53.455L512 431.564V82.194l-40.558 7.581zM55.766 92.618V81.69l25.351 8.624 45.964 15.636-71.315-13.332zm83.059 1.263l-42.5-14.459V64.009l63.894 37.149-21.394-7.277zM456.234 81.69v10.928l-71.315 13.331 45.964-15.636 25.351-8.623zm-40.559-17.681v15.413l-42.5 14.459-21.393 7.277 63.893-37.149zm81.117 354.927l-207.165 38.726v-44.24h-15.208v45.794h-36.838V140.525h36.838v252.619h15.208V139.236l207.165-38.727v318.427z"/><path d="M207.165 151.864l-176.75-33.042v287.485l176.75 33.042V151.864zm-15.208 269.17L45.624 393.679V137.137l146.334 27.354v256.543zm289.627-302.211l-176.75 33.042V439.35l176.75-33.043V118.823zm-15.208 274.856l-146.334 27.354V164.492l146.334-27.355v256.542z"/><path d="M111.185 267.47v114.478h15.208V267.47c6.945-1.26 12.95-4.297 17.624-8.97 6.306-6.306 9.64-15.028 9.64-25.227l.001-57.051H138.45l-.001 57.051c0 6.076-1.794 11.082-5.185 14.472-1.84 1.84-4.168 3.191-6.87 4.059v-75.579h-15.208v75.578c-2.701-.868-5.028-2.218-6.867-4.057-3.392-3.392-5.186-8.396-5.185-14.472v-57.05H83.926v57.05c-.002 10.197 3.331 18.921 9.638 25.227 4.674 4.672 10.677 7.709 17.621 8.969zm274.421-.404v114.882h15.208V267.066c15.538-3.48 27.189-17.375 27.188-33.945l.001-29.713c-.004-19.181-15.612-34.789-34.794-34.789-19.185 0-34.793 15.608-34.793 34.792v29.71c0 16.573 11.652 30.467 27.19 33.945zm-11.982-63.655c0-10.799 8.786-19.584 19.585-19.584 10.798 0 19.584 8.786 19.586 19.583l-.001 29.711c0 10.799-8.785 19.584-19.584 19.585-10.8-.001-19.586-8.787-19.586-19.585v-29.71z"/></svg>